PathFileType	4	(X/Y/Z)	c:/Users/goper/Files/vsCode/490R/osim_files/C03/C03_ROM.trc
DataRate	CameraRate	NumFrames	NumMarkers	Units                	OrigDataRate	OrigDataStartFrame	OrigNumFrames
250.00	250.00	4	36	mm	250.0	1827	3653
                Frame#	Time	LPSIS			LASIS			LTH1			LTH2			LTH3			LTH4			LLFE			LMFE			LSH1			LSH2			LSH3			LSH4			LLMAL			LMMAL			LCAL			LMTP5			LTOE			LMTP1			RPSIS			RASIS			RTH1			RTH2			RTH3			RTH4			RLFE			RMFE			RSH1			RSH2			RSH3			RSH4			RLMAL			RMMAL			RCAL			RMTP1			RTOE			RMTP5		
		X1	Y1	Z1	X2	Y2	Z2	X3	Y3	Z3	X4	Y4	Z4	X5	Y5	Z5	X6	Y6	Z6	X7	Y7	Z7	X8	Y8	Z8	X9	Y9	Z9	X10	Y10	Z10	X11	Y11	Z11	X12	Y12	Z12	X13	Y13	Z13	X14	Y14	Z14	X15	Y15	Z15	X16	Y16	Z16	X17	Y17	Z17	X18	Y18	Z18	X19	Y19	Z19	X20	Y20	Z20	X21	Y21	Z21	X22	Y22	Z22	X23	Y23	Z23	X24	Y24	Z24	X25	Y25	Z25	X26	Y26	Z26	X27	Y27	Z27	X28	Y28	Z28	X29	Y29	Z29	X30	Y30	Z30	X31	Y31	Z31	X32	Y32	Z32	X33	Y33	Z33	X34	Y34	Z34	X35	Y35	Z35	X36	Y36	Z36

1827	7.30400	-405.68033	1043.62146	395.35971	-234.37781	970.32800	362.76865	-353.89789	635.81482	273.88153	-344.27136	574.27942	271.30157	-278.47778	641.49268	263.42892	-278.33374	579.68842	262.49265	-316.06628	491.67163	261.88553	-297.45187	467.08545	369.61707	-396.09082	318.45975	238.84320	-393.79428	272.19272	234.13077	-337.24899	320.37189	222.06505	-343.21185	272.91577	218.89621	-356.74960	104.86579	217.46078	-329.22501	107.16341	293.02499	-421.78687	65.63676	257.82779	-231.64008	49.49369	167.29181	-192.43649	65.76325	215.63423	-209.25618	54.51105	258.44189	-404.96878	1041.16235	506.36548	0.00000	0.00000	0.00000	-365.89859	615.37677	620.69250	-362.30988	553.44672	616.65466	-309.10666	621.71381	651.39355	-296.51102	561.11591	654.73212	-295.02600	490.24945	646.46045	-285.71213	491.72507	536.11102	-404.92426	316.40433	661.42291	-405.53201	269.05563	666.98798	-347.17761	308.91547	687.09082	-358.20645	266.82074	688.52533	-375.03223	106.03621	685.86700	-343.86960	104.12559	609.48914	-436.42081	65.34579	636.19836	-228.29141	40.59211	629.59332	-207.26488	64.85305	678.88104	-269.89346	36.90171	733.48712
1828	7.30800	-406.50235	1043.70215	394.58530	-235.39398	970.39575	362.07095	-353.64926	635.56793	272.96664	-343.86206	574.07971	270.33438	-278.21011	641.50012	262.57166	-278.00970	579.71045	261.67737	-315.45554	491.54343	261.17429	-296.98077	467.09302	368.86945	-395.58899	318.39978	238.23854	-393.37259	272.11139	233.62129	-336.79947	320.17447	221.56914	-342.83530	272.72806	218.50002	-356.70068	104.74871	217.37439	-329.24347	107.14165	292.97791	-421.77396	65.60174	257.76956	-231.63063	49.48285	167.27318	-192.42403	65.76369	215.60559	-209.20436	54.55637	258.42014	-405.49963	1040.96826	505.59000	0.00000	0.00000	0.00000	-365.36700	614.91461	619.91907	-361.51071	552.98669	615.97351	-308.68173	621.59326	650.84491	-295.76407	561.04327	654.27576	-293.97552	490.13303	646.15125	-284.08023	491.62463	535.91522	-404.20004	316.56503	660.98993	-405.13248	269.25320	666.50055	-347.37677	308.91345	686.21704	-357.75919	266.82788	688.18304	-374.87866	106.14133	685.61871	-343.80624	104.04900	609.26318	-436.41077	65.32555	636.07672	-228.31773	40.60584	629.54004	-207.28439	64.96494	678.81219	-269.92053	36.99050	733.39490
1829	7.31200	-407.70782	1043.92908	393.45859	-236.36345	970.19824	361.35052	-353.45053	635.27148	272.25809	-343.69785	573.75641	269.67239	-278.00626	641.48706	261.74698	-277.57062	579.70380	260.89511	-314.84521	491.40506	260.45297	-296.34494	467.16614	368.16534	-395.07367	318.33066	237.68402	-392.93298	272.05283	233.15099	-336.30426	320.02338	221.13687	-342.42285	272.54797	218.12547	-356.64493	104.66376	217.33409	-329.24045	107.14243	292.94131	-421.79202	65.60531	257.75504	-231.63327	49.50282	167.25682	-192.40961	65.76765	215.59081	-209.16782	54.57715	258.40405	-406.43643	1040.87781	504.67133	0.00000	0.00000	0.00000	-364.87018	614.44867	619.19995	-360.54333	552.52222	615.37543	-308.27338	621.40186	650.22772	-295.06226	560.95844	653.77380	-292.71606	489.99896	645.80804	-282.61288	491.44781	535.73114	-403.61273	316.71631	660.57111	-404.69720	269.40665	666.07727	-346.78604	308.87204	685.91840	-357.19467	266.87210	687.77246	-374.75671	106.25001	685.34534	-343.76257	103.96983	609.04480	-436.41763	65.32046	635.96198	-228.32169	40.61639	629.49640	-207.33549	65.08372	678.71973	-269.97559	37.09379	733.30060
1830	7.31600	-408.25061	1043.95789	392.76050	-237.39349	969.94733	360.68726	-353.20248	635.04791	271.43173	-343.01346	573.61969	268.72913	-277.80151	641.48126	260.91830	-277.12189	579.72693	260.09149	-314.13126	491.30463	259.73154	-295.77600	467.19574	367.54114	-394.54330	318.29218	237.16177	-392.50214	271.99176	232.70308	-335.73236	319.86343	220.70856	-341.85001	272.38913	217.77611	-356.58524	104.59534	217.28291	-329.20984	107.13752	292.93872	-421.82709	65.60625	257.73978	-231.61612	49.50248	167.26422	-192.40654	65.76649	215.59285	-209.16330	54.56640	258.41449	-407.22186	1040.82031	503.86829	0.00000	0.00000	0.00000	-364.35370	613.87384	618.44788	-359.77884	552.08313	614.72620	-307.93182	621.25500	649.71655	-294.39267	560.86987	653.40387	-291.70413	489.87802	645.49536	-281.03137	491.34283	535.58508	-402.92731	316.80194	660.04828	-404.07391	269.47574	665.61102	-346.22241	308.88684	685.68237	-356.78363	266.87082	687.48468	-374.62503	106.33237	685.07117	-343.68115	103.92401	608.80066	-436.40430	65.31152	635.84717	-228.32578	40.61283	629.46857	-207.34538	65.20032	678.65021	-270.00076	37.18619	733.21753
